<svg width="40" height="40" viewBox="0 0 40 40" fill="none" xmlns="http://www.w3.org/2000/svg">
<rect width="40" height="40" rx="10" fill="#083400"/>
<path fill-rule="evenodd" clip-rule="evenodd" d="M25 9.53125C25 11.8612 23.1112 13.75 20.7812 13.75C19.8505 13.75 18.9901 13.4486 18.2924 12.938L22.7827 9.39594L21.0408 7.18777L16.7018 10.6105C16.6109 10.2661 16.5625 9.90431 16.5625 9.53125C16.5625 7.2013 18.4513 5.3125 20.7812 5.3125C23.1112 5.3125 25 7.2013 25 9.53125ZM13.5494 16.6796L18.2924 12.938C17.5233 12.3752 16.9519 11.5581 16.7018 10.6105L11.8459 14.4411C11.1814 14.0042 10.386 13.75 9.53125 13.75C7.2013 13.75 5.3125 15.6388 5.3125 17.9688C5.3125 20.2987 7.2013 22.1875 9.53125 22.1875C11.8612 22.1875 13.75 20.2987 13.75 17.9688C13.75 17.5191 13.6797 17.0859 13.5494 16.6796ZM13.5494 16.6796L11.7419 18.1054L10 15.8972L11.8459 14.4411C12.6432 14.9653 13.2522 15.7526 13.5494 16.6796Z" fill="#A3EC3F"/>
<path fill-rule="evenodd" clip-rule="evenodd" d="M34.8438 22.1875C34.8438 24.5175 32.955 26.4062 30.625 26.4062C29.6942 26.4062 28.8339 26.1048 28.1362 25.5943L32.6264 22.0522L30.8846 19.844L26.5456 23.2668C26.4547 22.9223 26.4062 22.5606 26.4062 22.1875C26.4062 19.8575 28.295 17.9688 30.625 17.9688C32.955 17.9688 34.8438 19.8575 34.8438 22.1875ZM23.3931 29.3358L28.1362 25.5943C27.367 25.0314 26.7956 24.2144 26.5456 23.2668L21.6896 27.0974C21.0251 26.6604 20.2297 26.4062 19.375 26.4062C17.045 26.4062 15.1562 28.295 15.1562 30.625C15.1562 32.955 17.045 34.8438 19.375 34.8438C21.705 34.8438 23.5938 32.955 23.5938 30.625C23.5938 30.1754 23.5234 29.7422 23.3931 29.3358ZM23.3931 29.3358L21.5856 30.7616L19.8438 28.5535L21.6896 27.0974C22.487 27.6216 23.096 28.4089 23.3931 29.3358Z" fill="#A3EC3F"/>
<path fill-rule="evenodd" clip-rule="evenodd" d="M31.0938 15.625C33.4237 15.625 35.3125 13.7362 35.3125 11.4062C35.3125 9.0763 33.4237 7.1875 31.0938 7.1875C28.7638 7.1875 26.875 9.0763 26.875 11.4062C26.875 11.9175 26.9659 12.4075 27.1325 12.861L22.3621 16.6242C21.7552 16.2863 21.0564 16.0938 20.3125 16.0938C17.9825 16.0938 16.0938 17.9825 16.0938 20.3125C16.0938 20.6856 16.1422 21.0473 16.2331 21.3918L11.3771 25.2224C10.7126 24.7854 9.91724 24.5312 9.0625 24.5312C6.73255 24.5312 4.84375 26.42 4.84375 28.75C4.84375 31.08 6.73255 32.9688 9.0625 32.9688C11.3925 32.9688 13.2812 31.08 13.2812 28.75C13.2812 28.3004 13.2109 27.8672 13.0806 27.4608L17.8237 23.7193C18.5214 24.2298 19.3817 24.5312 20.3125 24.5312C22.6425 24.5312 24.5312 22.6425 24.5312 20.3125C24.5312 19.755 24.4231 19.2227 24.2266 18.7356L28.9277 15.0272C29.5608 15.4068 30.3018 15.625 31.0938 15.625ZM22.0217 20.4077L17.8237 23.7193C17.0545 23.1564 16.4831 22.3394 16.2331 21.3918L20.5721 17.969L20.6047 18.0104L20.3125 18.241L22.0217 20.4077ZM22.0217 20.4077L22.3139 20.1772L20.6047 18.0104L22.3621 16.6242C23.2012 17.0915 23.8642 17.8368 24.2266 18.7356L22.0544 20.4491L22.0217 20.4077ZM28.9277 15.0272C28.1068 14.5351 27.4671 13.7717 27.1325 12.861L31.3533 9.53152L33.0952 11.7397L28.9277 15.0272ZM13.0806 27.4608L11.2731 28.8866L9.53125 26.6785L11.3771 25.2224C12.1745 25.7466 12.7835 26.5339 13.0806 27.4608Z" fill="#A3EC3F"/>
</svg>
