<?xml version="1.0" encoding="UTF-8"?>
<svg id="Layer_1" data-name="Layer 1" xmlns="http://www.w3.org/2000/svg" viewBox="0 0 396 572">
  <defs>
    <style>
      .cls-1 {
        fill: #a3ec3f;
      }
    </style>
  </defs>
  <path class="cls-1" d="M218.12,193.42c-53.33-53.33-139.78-53.33-193.11,0l154.23,154.23c53.32,53.33,139.78,53.33,193.11,0l-154.23-154.23Z"/>
  <path class="cls-1" d="M288.17,5.6h0s-263.15,0-263.15,0v136.55h126.61c75.41,0,136.55-61.13,136.55-136.55Z"/>
  <g>
    <g>
      <path class="cls-1" d="M100.64,565.95h-14.47c0-22.08-17.51-37.92-40.66-38.68-14.47,1.37-24.37,4.11-24.37,11.88v26.8H6.82v-99.14h59.55c16.9,0,30.61,13.1,30.61,28.63,0,12.34-6.09,21.32-17.06,26.04l-.91.46c-.46.3-.3.15-.15.15h-.15c1.68,1.07,3.35,2.44,5.03,3.96,5.33,4.57,9.44,10.05,12.34,16.14,3.05,6.24,4.57,14.47,4.57,23.76ZM49.01,512.34c20.71-1.37,33.66-3.2,33.66-16.9,0-7.77-7.31-14.16-16.3-14.16H21.14v36.25c.15,0,.15-.15.3-.15l.76-.46c7.92-3.05,17.06-3.81,26.8-4.57Z"/>
      <path class="cls-1" d="M216.38,566.4h-15.53l-31.53-81.78c-1.22-1.68-2.89-3.2-4.87-3.5-1.98,0-3.96,1.52-4.87,3.2l-37.77,82.09h-15.38l40.05-88.03c3.35-7.16,10.2-11.73,18.12-11.57,7.92.15,14.92,4.72,17.97,12.34l33.81,87.27Z"/>
      <path class="cls-1" d="M289.48,516.91c8.99,9.75,19.34,20.56,29.24,31.07l17.36,18.43h-19.65l-36.7-38.68-35.79,38.68h-19.65l45.69-49.34-47.67-50.71h19.65l37.77,39.9,17.97-19.04,19.19-20.86h19.49l-46.91,50.56Z"/>
      <path class="cls-1" d="M347.96,565.95v-99.14h14.47v99.14h-14.47Z"/>
      <path class="cls-1" d="M371.87,565.95v-99.14h14.47v99.14h-14.47Z"/>
    </g>
    <circle class="cls-1" cx="379.59" cy="452.63" r="9.59"/>
    <circle class="cls-1" cx="355.56" cy="452.63" r="9.59"/>
  </g>
</svg>